<?xml version="1.0" encoding="iso-8859-1"?>
<!-- Generator: Adobe Illustrator 19.0.0, SVG Export Plug-In . SVG Version: 6.00 Build 0)  -->
<svg version="1.1" id="Capa_1" xmlns="http://www.w3.org/2000/svg" xmlns:xlink="http://www.w3.org/1999/xlink" x="0px" y="0px"
	 viewBox="0 0 215.8 215.8" style="enable-background:new 0 0 215.8 215.8;" xml:space="preserve">
<g>
	<g>
		<circle style="fill:#93DDF5;" cx="107.9" cy="107.901" r="107.9"/>
		<g>
			<path style="fill:#F03C42;" d="M80.646,138.85c0,0-6.644-8.211-15.741-5.924c-9.097,2.285-22.389,20.695-5.598,40.705
				c14.395,17.152,36.828,7.533,41.897-2.18c5.066-9.715,7.745-20.02,0.238-28.371C93.934,134.729,88.24,136.526,80.646,138.85z"/>
			<path style="fill:#F03C42;" d="M134.202,141.321c0,0-9.506-4.598-16.764,1.344c-7.257,5.945-10.235,30.428,14.864,37.66
				c15.413,4.441,26.914-1.4,31.09-18.428c2.359-9.627,1.776-21.248-8.572-25.607C144.47,131.934,140.085,135.983,134.202,141.321z"
				/>
			<path style="fill:#56943E;" d="M80.938,144.483c0,0-2.548,0.486-2.881-5.926c-0.333-6.414-0.155-23.598,8.247-39.238
				c8.403-15.641,19.539-36.426,19.564-48.293c0,0-5.797-8.451-2.281-15.014c3.517-6.561,14.472-1.986,15.56,2.457
				c1.089,4.445,1.364,13.861-6.545,14.271c0,0,0.362,15.199,3.73,26.385c3.368,11.184,6.818,23.949,10.372,30.473
				c3.555,6.523,14.537,36.365,9.491,38.246c-5.046,1.881-5.218-9.67-6.812-15.596c-1.594-5.924-6.935-17.934-11.214-26.035
				c-4.278-8.1-9.849-24.529-10.244-40.369c0,0-2.863,10.867-9.656,24.508c-6.791,13.643-12.769,18.24-13.914,33.303
				S85.792,143.02,80.938,144.483z"/>
		</g>
	</g>
</g>
<g>
</g>
<g>
</g>
<g>
</g>
<g>
</g>
<g>
</g>
<g>
</g>
<g>
</g>
<g>
</g>
<g>
</g>
<g>
</g>
<g>
</g>
<g>
</g>
<g>
</g>
<g>
</g>
<g>
</g>
</svg>
