<?xml version="1.0" encoding="iso-8859-1"?>
<!-- Generator: Adobe Illustrator 19.0.0, SVG Export Plug-In . SVG Version: 6.00 Build 0)  -->
<svg version="1.1" id="Layer_1" xmlns="http://www.w3.org/2000/svg" xmlns:xlink="http://www.w3.org/1999/xlink" x="0px" y="0px"
	 viewBox="0 0 215.8 215.8" style="enable-background:new 0 0 215.8 215.8;" xml:space="preserve">
<g>
	<g>
		<circle style="fill:#FFEB70;" cx="107.9" cy="107.9" r="107.9"/>
		<g>
			<path style="fill:#6B4A48;" d="M173.731,107.855c0.141,3.096-0.045,6.111-0.445,9.061c-0.4,2.949-0.992,5.836-1.768,8.65
				c-0.773,2.813-1.729,5.545-2.861,8.154c-9.881,21.135-30.652,35.848-52.215,40.012c-2.944,0.42-5.955,0.629-9.015,0.629
				c-3.059,0-6.068-0.205-9.002-0.6c-22.731-3.328-42.637-18.906-52.158-39.951c-0.865-2.346-1.596-4.75-2.192-7.195
				c-4.183-17.127-1.869-36.342,6.036-52.248c1.56-2.387,3.278-4.686,5.122-6.885c9.684-11.549,22.843-20.402,37.341-24.123
				c4.833-1.242,9.814-1.912,14.856-1.924c20.189,0.049,40.094,9.568,51.285,26.961c3.039,4.504,5.604,9.354,7.824,14.32
				c2.221,4.969,4.107,10.057,5.756,15.035C173.078,101.07,173.576,104.449,173.731,107.855z"/>
			<path style="fill:#56943E;" d="M170.149,107.855c0.129,2.93-0.045,5.783-0.424,8.572s-0.939,5.521-1.672,8.184
				c-0.732,2.66-1.635,5.246-2.705,7.723c-9.17,19.061-27.344,33.773-49.393,37.844c-2.786,0.395-5.634,0.59-8.528,0.59
				s-5.741-0.195-8.523-0.568c-21.479-2.361-40.519-17.939-49.356-37.803c-0.843-2.277-1.553-4.594-2.134-6.938
				c-4.065-16.416-1.795-34.203,5.77-49.287c1.402-2.283,2.973-4.469,4.684-6.547c8.986-10.912,21.864-18.906,35.625-22.51
				c4.587-1.203,9.272-1.916,13.938-2.088c19.325-0.082,39.229,9.438,49.058,25.471c2.959,4.279,5.43,8.889,7.469,13.6
				s3.654,9.523,4.867,14.209C169.545,101.441,170.006,104.633,170.149,107.855z"/>
			<path style="fill:#7ABF60;" d="M166.572,107.859c0.125,3.309-0.133,6.523-0.643,9.652c-0.512,3.131-1.266,6.176-2.246,9.121
				c-7.506,19.568-24.814,36.012-46.646,39.74c-3.124,0.533-6.336,0.803-9.61,0.803c-2.455,0-4.875-0.15-7.251-0.439
				c-19.29-2.361-35.733-14.477-45.405-31.594c-1.066-2.08-1.983-4.238-2.758-6.453c-5.422-15.506-3.921-33.842,2.782-48.02
				c1.294-2.422,2.77-4.719,4.388-6.896c8.495-11.426,20.878-19.541,34.419-23.125c4.514-1.195,9.155-1.887,13.822-2.029
				c18.465,0.654,35.773,8.443,46.332,24.066c2.705,3.926,5,8.185,6.932,12.629c1.932,4.441,3.502,9.066,4.73,13.717
				C166.057,101.93,166.459,104.881,166.572,107.859z"/>
			<path style="fill:#C7ED95;" d="M96.083,93.742c0,0,2.949-0.842,2.949-4.002c0-3.16,3.518-6.32,8.395-4.635
				c4.878,1.684,6.443,13.176,9.559,12.592c3.115-0.584,9.644-1.217,11.541,2.576c1.897,3.793-0.77,10.746,0.144,13.063
				c0.911,2.318-1.406,8.637-6.252,7.795c-4.847-0.842-9.068,2.107-12.435,4.424c-3.367,2.318-7.046,2.107-12.159-1.053
				s-9.748-0.842-12.065-6.951c-2.317-6.111,1.054-6.742,4.003-8.639c2.949-1.896-5.986-15.502-3.272-18.604
				C89.991,86.305,92.923,93.533,96.083,93.742z"/>
			<ellipse style="fill:#C7ED95;" cx="107.107" cy="105.873" rx="1.406" ry="47.281"/>
			<path style="fill:#C7ED95;" d="M107.945,108.609c-5.299,24.162-10.209,43.613-10.968,43.447
				c-0.758-0.166,2.923-19.889,8.223-44.051c3.533-16.107,6.894-30.123,8.965-37.627c1.036-3.75,1.749-5.875,2.001-5.82
				c0.252,0.057,0.015,2.283-0.615,6.125c-0.629,3.842-1.647,9.297-2.949,15.803C111.299,92.994,109.712,100.555,107.945,108.609z"
				/>
			<path style="fill:#C7ED95;" d="M108.33,106.695c-7.384,15.766-14.089,29.422-17.946,36.678c-1.929,3.629-3.144,5.654-3.378,5.545
				c-0.233-0.109,0.541-2.344,2.093-6.146c3.103-7.609,9.302-21.502,16.685-37.268c3.691-7.883,7.214-15.238,10.295-21.531
				c3.081-6.291,5.722-11.52,7.634-15.146c1.911-3.627,3.105-5.654,3.339-5.545c0.234,0.109-0.521,2.342-2.056,6.146
				c-1.533,3.805-3.858,9.18-6.719,15.574C115.417,91.398,112.022,98.812,108.33,106.695z"/>
			<path style="fill:#C7ED95;" d="M106.655,108.932c-7.523,9.818-14.459,18.609-19.591,24.889c-1.711,2.092-3.222,3.906-4.486,5.385
				c-2.528,2.959-4.058,4.584-4.264,4.426c-0.205-0.156,0.939-2.076,3.138-5.289c1.1-1.605,2.458-3.535,4.034-5.73
				c4.729-6.588,11.415-15.572,18.938-25.389c7.523-9.816,14.459-18.607,19.592-24.887c1.711-2.092,3.221-3.906,4.485-5.385
				c2.515-2.967,4.027-4.602,4.229-4.447c0.201,0.156-0.927,2.086-3.103,5.309c-1.099,1.607-2.458,3.537-4.034,5.732
				C120.865,90.133,114.179,99.115,106.655,108.932z"/>
			<path style="fill:#C7ED95;" d="M107.522,108.088c-12.978,11.605-24.503,21.535-30.897,26.697
				c-3.197,2.578-5.105,3.969-5.278,3.775c-0.174-0.193,1.413-1.943,4.333-4.834c5.84-5.781,16.992-16.129,29.97-27.732
				c6.488-5.803,12.613-11.188,17.916-15.766c2.651-2.289,5.098-4.375,7.278-6.215c1.851-1.791,3.642-3.338,5.401-4.76
				c1.76-1.422,3.486-2.721,5.213-4.018c-1.291,1.73-2.588,3.678-4.074,5.5c-1.486,1.824-3.162,3.523-5.217,4.76
				c-2.065,1.965-4.413,4.162-6.983,6.543C120.042,96.799,114.01,102.287,107.522,108.088z"/>
			<path style="fill:#C7ED95;" d="M105.104,109.488c-21.543,12.158-39.317,21.463-39.698,20.787
				c-0.381-0.676,16.773-11.078,38.317-23.232c7.182-4.053,13.944-7.787,19.782-10.941c2.92-1.578,5.609-3.01,8.003-4.264
				c3.9-1.889,7.361-4.486,11.689-5.352c-3.461,1.73-6.924,5.193-10.715,7.082c-2.31,1.402-4.926,2.963-7.784,4.646
				C118.979,101.58,112.285,105.437,105.104,109.488z"/>
			<path style="fill:#C7ED95;" d="M106.786,108.5c-16.674,5.006-31.323,9.111-39.303,11.072c-3.989,0.98-6.311,1.426-6.385,1.178
				s2.106-1.158,5.976-2.537c7.74-2.758,22.229-7.4,38.903-12.404c8.337-2.502,16.168-4.781,22.911-6.678
				c3.372-0.947,6.472-1.801,9.226-2.539c4.217-0.586,7.678-4.912,12.871-2.316c-4.328,1.73-8.654,1.73-12.299,4.219
				c-2.705,0.9-5.764,1.896-9.1,2.961C122.914,103.586,115.124,105.998,106.786,108.5z"/>
			<path style="fill:#C7ED95;" d="M104.004,108.744c-12.334,0.936-23.511,1.625-31.612,1.984c-2.7,0.121-5.059,0.203-7.005,0.248
				c-3.869,0.096-6.062,0.045-6.079-0.211c-0.018-0.258,2.138-0.689,5.973-1.205c1.93-0.25,4.273-0.525,6.961-0.815
				c8.063-0.865,19.217-1.869,31.549-2.805c12.333-0.936,23.51-1.625,31.61-1.984c2.701-0.121,5.059-0.203,7.006-0.246
				c3.891-0.088,6.123-0.02,6.143,0.24c0.023,0.258-2.176,0.672-6.035,1.174c-1.93,0.25-4.275,0.525-6.963,0.814
				C127.489,106.805,116.336,107.808,104.004,108.744z"/>
			<path style="fill:#C7ED95;" d="M106.109,109.266c-13.009-1.111-24.773-2.273-33.277-3.256c-2.834-0.326-5.307-0.635-7.337-0.906
				c-4.041-0.545-6.3-0.955-6.278-1.215c0.022-0.258,2.321-0.33,6.395-0.205c2.053,0.072,4.541,0.19,7.391,0.346
				c8.547,0.475,20.338,1.324,33.347,2.436c26.019,2.221,47.056,4.65,46.991,5.422C153.274,112.662,132.127,111.486,106.109,109.266
				z"/>
			<path style="fill:#C7ED95;" d="M103.433,108.467c-11.813-3.668-22.46-7.139-30.125-9.785c-2.555-0.883-4.778-1.672-6.604-2.348
				c-3.646-1.348-5.684-2.232-5.609-2.48c0.075-0.248,2.259,0.174,6.03,1.125c1.887,0.476,4.167,1.086,6.773,1.805
				c7.816,2.162,18.557,5.332,30.368,9c23.624,7.336,42.586,13.885,42.355,14.625C146.391,121.15,127.055,115.803,103.433,108.467z"
				/>
			<path style="fill:#C7ED95;" d="M105.306,109.012c-22.621-13.047-40.643-24.168-40.255-24.84
				c0.388-0.674,19.039,9.357,41.66,22.406c15.079,8.697,28.115,16.541,35.016,21.002c3.451,2.23,5.367,3.613,5.236,3.836
				c-0.129,0.223-2.287-0.738-5.945-2.607c-1.828-0.935-4.033-2.096-6.545-3.447C126.934,121.307,116.615,115.535,105.306,109.012z"
				/>
			<path style="fill:#C7ED95;" d="M103.22,107.154c-9.142-8.332-17.312-15.99-23.131-21.639c-1.939-1.881-3.618-3.541-4.984-4.926
				c-2.731-2.773-4.197-4.449-4.021-4.641c0.178-0.189,1.967,1.127,4.977,3.592c1.506,1.232,3.313,2.75,5.367,4.506
				c6.162,5.273,14.544,12.697,23.685,21.031c9.141,8.33,17.311,15.988,23.129,21.637c1.941,1.883,3.618,3.543,4.985,4.928
				c2.732,2.773,4.215,4.447,4.041,4.637c-0.176,0.191-1.984-1.123-4.996-3.588c-1.507-1.232-3.313-2.75-5.368-4.506
				C120.742,122.912,112.36,115.486,103.22,107.154z"/>
			<path style="fill:#C7ED95;" d="M103.896,108.219C97.664,96.744,92.16,86.281,88.301,78.641c-1.286-2.547-2.391-4.779-3.269-6.629
				c-1.676-3.688-2.48-5.852-2.254-5.975c0.227-0.123,1.457,1.809,3.501,5.297c1.063,1.752,2.334,3.893,3.77,6.359
				c4.307,7.396,10.086,17.709,16.316,29.184c6.23,11.475,11.732,21.936,15.593,29.578c1.286,2.545,2.391,4.779,3.277,6.629
				c1.771,3.691,2.671,5.844,2.444,5.969s-1.553-1.795-3.69-5.289c-1.07-1.754-2.343-3.896-3.778-6.361
				C115.905,130.006,110.126,119.693,103.896,108.219z"/>
			<path style="fill:#C7ED95;" d="M103.088,105.543c-3.437-11.881-6.397-22.68-8.405-30.537c-0.67-2.619-1.233-4.91-1.672-6.807
				c-0.842-3.781-1.175-5.978-0.931-6.053c0.244-0.072,1.042,1.99,2.293,5.658c0.64,1.838,1.387,4.076,2.219,6.648
				c2.497,7.715,5.76,18.428,9.196,30.311c6.873,23.76,11.841,43.199,11.096,43.414
				C116.138,148.392,109.961,129.307,103.088,105.543z"/>
			<path style="fill:#6B4A48;" d="M103.578,69.937c0,0,2.43,0.604,3.109,3.006c0.681,2.402-1.116,2.902-2.401,0.957
				C102.924,71.84,103.578,69.937,103.578,69.937z"/>
			<path style="fill:#6B4A48;" d="M80.956,98.262c0,0-2.286,1.02-4.3-0.453c-2.016-1.473-0.908-2.973,1.302-2.232
				C80.301,96.361,80.956,98.262,80.956,98.262z"/>
			<path style="fill:#6B4A48;" d="M109.061,142.135c0,0-2.286,1.02-4.3-0.453c-2.016-1.475-0.907-2.975,1.302-2.232
				C108.406,140.232,109.061,142.135,109.061,142.135z"/>
			<path style="fill:#6B4A48;" d="M149.303,112.279c0,0-2.287,1.02-4.301-0.453c-2.016-1.475-0.908-2.975,1.303-2.232
				C148.649,110.377,149.303,112.279,149.303,112.279z"/>
			<path style="fill:#6B4A48;" d="M128.177,90.775c0,0-1.258-2.164-0.008-4.324c1.25-2.162,2.86-1.219,2.359,1.057
				C129.998,89.922,128.177,90.775,128.177,90.775z"/>
			<path style="fill:#6B4A48;" d="M82.812,136.31c0,0-0.241-2.492,1.795-3.936c2.038-1.441,3.108,0.086,1.704,1.945
				C84.823,136.293,82.812,136.31,82.812,136.31z"/>
			<path style="fill:#6B4A48;" d="M134.008,133.652c0,0-2.504,0.076-3.807-2.051c-1.306-2.129,0.29-3.096,2.051-1.572
				C134.121,131.644,134.008,133.652,134.008,133.652z"/>
		</g>
	</g>
</g>
<g>
</g>
<g>
</g>
<g>
</g>
<g>
</g>
<g>
</g>
<g>
</g>
<g>
</g>
<g>
</g>
<g>
</g>
<g>
</g>
<g>
</g>
<g>
</g>
<g>
</g>
<g>
</g>
<g>
</g>
</svg>
