<?xml version="1.0" encoding="iso-8859-1"?>
<!-- Generator: Adobe Illustrator 19.0.0, SVG Export Plug-In . SVG Version: 6.00 Build 0)  -->
<svg version="1.1" id="Layer_1" xmlns="http://www.w3.org/2000/svg" xmlns:xlink="http://www.w3.org/1999/xlink" x="0px" y="0px"
	 viewBox="0 0 215.798 215.798" style="enable-background:new 0 0 215.798 215.798;" xml:space="preserve">
<g>
	<g>
		<circle style="fill:#FF6059;" cx="107.899" cy="107.899" r="107.899"/>
		<g>
			<path style="fill:#F4A500;" d="M26.491,85.087L189.958,85.6c0,0-0.465,47.619-23.585,68.012
				c-22.46,19.81-39.566,21.561-65.418,20.771c-25.908-0.79-54.009-12.729-66.277-42.36C22.409,102.392,26.491,85.087,26.491,85.087
				z"/>
			<path style="fill:#FBCA3D;" d="M31.564,85.103c-0.553,5.785-0.652,20.324,8.03,41.579c11.445,28.018,37.676,39.3,61.859,40.042
				c24.131,0.74,40.103-0.919,61.072-19.656c18.33-16.382,21.414-51.319,21.928-61.484L31.564,85.103z"/>
			<path style="fill:#F4A500;" d="M53.169,85.17c0.292,0.767,0.585,1.534,0.908,2.324c9.114,22.31,30,31.294,49.257,31.885
				c19.216,0.589,31.932-0.731,48.63-15.651c5.252-4.692,8.925-11.299,11.504-18.211L53.169,85.17z"/>
			<path style="fill:#CF6700;" d="M112.16,103.567c0,0,0.194,2.78-2.115,4.325c-2.308,1.544-3.454-0.187-1.837-2.215
				C109.922,103.526,112.16,103.567,112.16,103.567z"/>
			<path style="fill:#CF6700;" d="M138.275,97.541c0,0,1.837-2.095,4.56-1.544c2.723,0.552,2.301,2.584-0.277,2.864
				C139.823,99.159,138.275,97.541,138.275,97.541z"/>
			<path style="fill:#CF6700;" d="M136.361,97.301c0,0,1.184,2.522-0.409,4.796c-1.596,2.274-3.29,1.076-2.516-1.4
				C134.258,98.072,136.361,97.301,136.361,97.301z"/>
			<path style="fill:#CF6700;" d="M126.188,105.606c0,0,0.666-2.706,3.337-3.469c2.671-0.763,3.232,1.235,1.072,2.671
				C128.306,106.33,126.188,105.606,126.188,105.606z"/>
			<path style="fill:#CF6700;" d="M147.517,91.356c0,0,0.666-2.706,3.337-3.469c2.672-0.763,3.232,1.235,1.071,2.671
				C149.636,92.08,147.517,91.356,147.517,91.356z"/>
			<path style="fill:#CF6700;" d="M58.911,89.745c0,0,0.666-2.706,3.337-3.468c2.671-0.764,3.233,1.235,1.072,2.67
				C61.03,90.469,58.911,89.745,58.911,89.745z"/>
			<path style="fill:#CF6700;" d="M99.48,106.37c0,0,1.691-2.214,4.443-1.848c2.754,0.366,2.471,2.422-0.083,2.876
				C101.132,107.88,99.48,106.37,99.48,106.37z"/>
			<path style="fill:#CF6700;" d="M125.238,102.415c0,0,0.151,2.782-2.18,4.291c-2.333,1.509-3.452-0.238-1.805-2.242
				C123,102.34,125.238,102.415,125.238,102.415z"/>
			<path style="fill:#CF6700;" d="M149.383,97.779c0,0,0.151,2.782-2.18,4.291c-2.333,1.509-3.452-0.238-1.805-2.242
				C147.145,97.703,149.383,97.779,149.383,97.779z"/>
			<path style="fill:#CF6700;" d="M156.894,90.937c0,0,0.15,2.782-2.182,4.291c-2.331,1.51-3.452-0.239-1.804-2.242
				C154.655,90.862,156.894,90.937,156.894,90.937z"/>
			<path style="fill:#CF6700;" d="M159.845,89.444c0,0-2.618,0.952-4.738-0.841c-2.121-1.795-0.774-3.373,1.622-2.377
				C159.269,87.281,159.845,89.444,159.845,89.444z"/>
			<path style="fill:#CF6700;" d="M142.068,100.151c0,0,0.152,2.783-2.179,4.291c-2.334,1.51-3.452-0.238-1.806-2.242
				C139.831,100.077,142.068,100.151,142.068,100.151z"/>
			<path style="fill:#CF6700;" d="M72.538,86.566c0,0,1.521,2.334,0.255,4.806c-1.267,2.472-3.109,1.518-2.683-1.041
				C70.562,87.619,72.538,86.566,72.538,86.566z"/>
			<path style="fill:#CF6700;" d="M77.893,99.26c0,0,1.521,2.334,0.254,4.806c-1.266,2.473-3.108,1.517-2.683-1.041
				C75.916,100.313,77.893,99.26,77.893,99.26z"/>
			<path style="fill:#CF6700;" d="M88.603,110.248c0,0-2.513-1.202-2.717-3.973c-0.205-2.771,1.866-2.914,2.832-0.506
				C89.743,108.321,88.603,110.248,88.603,110.248z"/>
			<path style="fill:#CF6700;" d="M106.818,112.989c0,0,0.696-2.697,3.375-3.433c2.679-0.734,3.219,1.27,1.042,2.682
				C108.929,113.736,106.818,112.989,106.818,112.989z"/>
			<path style="fill:#CF6700;" d="M78.273,93.92c0,0,2.763,0.352,3.827,2.917c1.065,2.566-0.856,3.353-2.529,1.371
				C77.795,96.108,78.273,93.92,78.273,93.92z"/>
			<path style="fill:#CF6700;" d="M89.213,98.336c0,0-1.052,2.58-3.806,2.946c-2.754,0.368-3.019-1.691-0.672-2.798
				C87.223,97.312,89.213,98.336,89.213,98.336z"/>
			<path style="fill:#CF6700;" d="M105.133,109.318c0,0-1.052,2.58-3.806,2.947c-2.753,0.367-3.019-1.692-0.672-2.798
				C103.143,108.294,105.133,109.318,105.133,109.318z"/>
			<path style="fill:#CF6700;" d="M100.208,102.968c0,0-1.053,2.58-3.806,2.946c-2.754,0.368-3.019-1.691-0.673-2.797
				C98.218,101.943,100.208,102.968,100.208,102.968z"/>
			<path style="fill:#CF6700;" d="M116.558,111.613c0,0,1.231-2.499,4.004-2.67c2.773-0.172,2.892,1.9,0.474,2.838
				C118.471,112.775,116.558,111.613,116.558,111.613z"/>
			<path style="fill:#CF6700;" d="M118.706,105.601c0,0-1.053,2.58-3.806,2.947c-2.754,0.368-3.019-1.692-0.672-2.797
				C116.716,104.576,118.706,105.601,118.706,105.601z"/>
			<path style="fill:#CF6700;" d="M143.882,94.823c0,0,1.86-2.072,4.576-1.486c2.717,0.585,2.27,2.612-0.311,2.86
				C145.408,96.46,143.882,94.823,143.882,94.823z"/>
			<path style="fill:#CF6700;" d="M138.108,106.718c0,0-2.034,1.904-4.688,1.086c-2.655-0.817-2.035-2.798,0.56-2.822
				C136.729,104.955,138.108,106.718,138.108,106.718z"/>
			<path style="fill:#CF6700;" d="M129.96,107.75c0,0-1.054,2.58-3.807,2.946c-2.754,0.368-3.019-1.691-0.672-2.797
				C127.969,106.726,129.96,107.75,129.96,107.75z"/>
			<path style="fill:#CF6700;" d="M91.91,108.276c0,0,2.239-1.657,4.782-0.539c2.544,1.118,1.7,3.014-0.88,2.74
				C93.078,110.187,91.91,108.276,91.91,108.276z"/>
			<path style="fill:#CF6700;" d="M82.857,102.359c0,0,1.654,2.241,0.536,4.784c-1.118,2.542-3.015,1.697-2.739-0.882
				C80.947,103.526,82.857,102.359,82.857,102.359z"/>
			<path style="fill:#CF6700;" d="M94.193,99.239c0,0,0.434,2.752-1.732,4.49c-2.166,1.74-3.457,0.116-2.023-2.045
				C91.959,99.393,94.193,99.239,94.193,99.239z"/>
			<path style="fill:#CF6700;" d="M72.4,100.291c0,0-0.655-2.707,1.362-4.617c2.019-1.909,3.438-0.395,2.183,1.875
				C74.614,99.957,72.4,100.291,72.4,100.291z"/>
			<path style="fill:#CF6700;" d="M63.61,92.667c0,0,0.073-2.784,2.52-4.101c2.446-1.317,3.422,0.516,1.617,2.38
				C65.834,92.922,63.61,92.667,63.61,92.667z"/>
			<path style="fill:#CF6700;" d="M72.37,95.263c0,0-1.216,2.507-3.986,2.698c-2.771,0.191-2.905-1.881-0.492-2.835
				C70.448,94.113,72.37,95.263,72.37,95.263z"/>
		</g>
	</g>
</g>
<g>
</g>
<g>
</g>
<g>
</g>
<g>
</g>
<g>
</g>
<g>
</g>
<g>
</g>
<g>
</g>
<g>
</g>
<g>
</g>
<g>
</g>
<g>
</g>
<g>
</g>
<g>
</g>
<g>
</g>
</svg>
