<?xml version="1.0" encoding="iso-8859-1"?>
<!-- Generator: Adobe Illustrator 19.0.0, SVG Export Plug-In . SVG Version: 6.00 Build 0)  -->
<svg version="1.1" id="Layer_1" xmlns="http://www.w3.org/2000/svg" xmlns:xlink="http://www.w3.org/1999/xlink" x="0px" y="0px"
	 viewBox="0 0 215.8 215.8" style="enable-background:new 0 0 215.8 215.8;" xml:space="preserve">
<g>
	<g>
		<circle style="fill:#FF6059;" cx="107.9" cy="107.9" r="107.9"/>
		<g>
			<path style="fill:#8CC375;" d="M101.755,65.061c0,0,1.758-16.508,5.69-28.447c3.931-11.939,10.48-8.385,11.079-6.588
				s-12.876,18.266-11.079,35.035H101.755z"/>
			<path style="fill:#FBCA3D;" d="M171.26,124.33c-0.205,2.902-0.638,5.805-1.277,8.684c-5.941,31.242-36.231,59.801-69.964,53.908
				c-2.705-0.406-5.383-1.002-8.019-1.77c-21.088-6.139-39.455-23.357-46.089-43.857c-0.649-2.896-1.061-5.842-1.249-8.809
				c-1.695-26.699,14.654-55.213,37.943-66.957c2.547-1.076,5.179-1.992,7.885-2.736c30.28-8.447,64.032,7.996,75.76,36.697
				c1.072,2.545,1.987,5.174,2.73,7.875c0.743,2.701,1.313,5.475,1.697,8.305C171.062,118.502,171.26,121.393,171.26,124.33z"/>
		</g>
	</g>
</g>
<g>
</g>
<g>
</g>
<g>
</g>
<g>
</g>
<g>
</g>
<g>
</g>
<g>
</g>
<g>
</g>
<g>
</g>
<g>
</g>
<g>
</g>
<g>
</g>
<g>
</g>
<g>
</g>
<g>
</g>
</svg>
