<?xml version="1.0" encoding="iso-8859-1"?>
<!-- Generator: Adobe Illustrator 19.0.0, SVG Export Plug-In . SVG Version: 6.00 Build 0)  -->
<svg version="1.1" id="Layer_1" xmlns="http://www.w3.org/2000/svg" xmlns:xlink="http://www.w3.org/1999/xlink" x="0px" y="0px"
	 viewBox="0 0 215.798 215.798" style="enable-background:new 0 0 215.798 215.798;" xml:space="preserve">
<g>
	<g>
		<circle style="fill:#FFEB70;" cx="107.899" cy="107.899" r="107.899"/>
		<g>
			<path style="fill:#FE6267;" d="M108.811,33.374c0,0-45.053,102.083-57.293,130.47c0,0,17.448,20.055,57.293,18.49
				c39.845-1.563,55.469-17.707,55.469-17.707S116.885,47.177,108.811,33.374z"/>
			<path style="fill:#FE878A;" d="M164.28,164.628c0,0-2.585-6.41-6.649-16.4c-11.821-3.775-19.709-1.34-24.012,4.176
				c-4.529,5.809-8.917,6.367-16.844,3.959c-7.926-2.406-14.862-1.414-21.515,2.131c-6.652,3.547-15.004-1.141-22.222-8.076
				c-3.217-3.09-8.567-4.436-13.514-4.98c-3.288,7.525-6.063,13.898-8.007,18.408c0,0,17.448,20.055,57.293,18.49
				C148.656,180.772,164.28,164.628,164.28,164.628z"/>
			<path style="fill:#56943E;" d="M108.811,174.751c-31.564,1.24-49.062-11.08-54.976-16.258c-0.861,1.984-1.642,3.787-2.316,5.352
				c0,0,17.448,20.055,57.293,18.49c39.845-1.563,55.469-17.707,55.469-17.707s-0.829-2.059-2.277-5.631
				C156.396,163.341,140.049,173.528,108.811,174.751z"/>
			<path style="fill:#6B4A48;" d="M102.837,76.641c0,0,5.003,2.794,5.063,8.508c0.062,5.714-4.209,5.739-5.88,0.672
				C100.246,80.449,102.837,76.641,102.837,76.641z"/>
			<path style="fill:#6B4A48;" d="M117.726,118.971c0,0-5.537-1.475-7.004-6.996c-1.47-5.522,2.663-6.601,5.532-2.101
				C119.297,114.643,117.726,118.971,117.726,118.971z"/>
			<path style="fill:#6B4A48;" d="M87.836,118.022c0,0,3.448,4.577,1.194,9.829c-2.253,5.252-6.169,3.551-5.65-1.76
				C83.929,120.46,87.836,118.022,87.836,118.022z"/>
			<path style="fill:#6B4A48;" d="M130.286,127.01c0,0,5.561,1.383,7.119,6.881c1.558,5.498-2.557,6.643-5.498,2.191
				C128.787,131.364,130.286,127.01,130.286,127.01z"/>
		</g>
	</g>
</g>
<g>
</g>
<g>
</g>
<g>
</g>
<g>
</g>
<g>
</g>
<g>
</g>
<g>
</g>
<g>
</g>
<g>
</g>
<g>
</g>
<g>
</g>
<g>
</g>
<g>
</g>
<g>
</g>
<g>
</g>
</svg>
